# Blender 5.0.1
# www.blender.org
mtllib corner.mtl
o Cube
v 2.000000 -2.000000 -2.000000
v 2.000000 -2.000000 2.000000
v -2.000000 -2.000000 -2.000000
v -2.000000 -2.000000 2.000000
v 2.000000 0.000000 -2.000000
v -2.000000 0.000000 -2.000000
v -2.000000 -1.000000 0.000000
vn -0.0000 -1.0000 -0.0000
vn -0.0000 -0.0000 -1.0000
vn 1.0000 -0.0000 -0.0000
vn -1.0000 -0.0000 -0.0000
vn -0.0000 0.8944 0.4472
vt 0.125000 0.500000
vt 0.375000 0.500000
vt 0.375000 0.750000
vt 0.125000 0.750000
vt 0.375000 0.250000
vt 0.500000 0.250000
vt 0.500000 0.500000
vt 0.312500 0.500000
vt 0.000000 0.000000
s 0
usemtl Material
f 3/1/1 1/2/1 2/3/1 4/4/1
f 3/5/2 6/6/2 5/7/2 1/2/2
f 1/2/3 5/7/3 2/3/3
f 3/5/4 4/4/4 7/8/4 6/6/4
f 6/9/5 4/9/5 2/9/5 5/9/5
